<svg xmlns="http://www.w3.org/2000/svg" width="260" height="90" fill="none"><path d="M0 26.59C0 16.97 6.83 8.77 16.36 7.45 37.73 4.48 78.56 0 130 0s92.27 4.48 113.64 7.45C253.17 8.77 260 16.97 260 26.59V63.4c0 9.62-6.83 17.82-16.36 19.14C222.27 85.52 181.44 90 130 90s-92.27-4.48-113.64-7.45C6.83 81.23 0 73.03 0 63.41V26.6Z" fill="#fff"/><g opacity=".6" filter="url(#a)"><path d="M16.6 51.78c2.1-6.82 7.7-11.96 14.75-13.08C47.7 36.12 81.36 32 130 32c48.64 0 82.3 4.12 98.65 6.7 7.05 1.12 12.64 6.26 14.74 13.08 3.51 11.4-3.77 23.18-15.63 24.6A835.65 835.65 0 0 1 130 82c-42.27 0-76.78-3.1-97.77-5.62-11.85-1.42-19.13-13.2-15.62-24.6Z" fill="#CF1A1A"/></g><path d="M10 35.5c0-9.7 6.95-17.94 16.56-19.18C46.66 13.73 83.66 10 130 10c46.33 0 83.34 3.73 103.44 6.32C243.05 17.56 250 25.81 250 35.5v19c0 9.7-6.95 17.94-16.56 19.18C213.34 76.27 176.34 80 130 80c-46.33 0-83.34-3.73-103.44-6.32C16.95 72.44 10 64.19 10 54.5v-19Z" fill="#CF1A1A"/><path d="M10 26.09c0-4.94 3.6-9.12 8.5-9.73C35.46 14.26 76.52 10 130 10s94.54 4.27 111.5 6.36c4.9.6 8.5 4.79 8.5 9.73V53.9c0 4.94-3.6 9.12-8.5 9.73C224.54 65.74 183.48 70 130 70s-94.54-4.27-111.5-6.36A9.72 9.72 0 0 1 10 53.9V26.1Z" fill="#E24949"/><defs><filter id="a" x="7.72" y="24" width="244.56" height="66" filterUnits="userSpaceOnUse" color-interpolation-filters="sRGB"><feFlood flood-opacity="0" result="BackgroundImageFix"/><feBlend in="SourceGraphic" in2="BackgroundImageFix" result="shape"/><feGaussianBlur stdDeviation="4" result="effect1_foregroundBlur_157_3"/></filter></defs></svg>