<svg xmlns="http://www.w3.org/2000/svg" width="340" height="48" fill="none"><path d="M14.86 19.37c.17 0 .49.17.96.5.47.35.97.52 1.48.52h.06a4.1 4.1 0 0 0 3.48-1.73 6.6 6.6 0 0 0 1.41-3.45l.2-1.72c0-1.62-.26-3-.78-4.16A6.61 6.61 0 0 0 20 6.71a6.32 6.32 0 0 0-2.25-1.34 9.14 9.14 0 0 0-3.4-.64c-1.17 0-2.1.13-2.84.38-.73.22-1.13.43-1.22.64l-.06.39c-.39 5.75-.58 10.9-.58 15.46 0 4.52.06 8.42.19 11.7.17 3.28.32 5.82.45 7.6.17 1.75.26 2.71.26 2.88 0 1.07-.95 1.92-2.83 2.56-1.89.64-3.75.96-5.6.96-.86 0-1.28-.22-1.28-.64 0-.13.06-.43.19-.9.81-1.87 1.22-10.59 1.22-26.14 0-9.16-.62-14.4-1.86-15.72C.13 3.64 0 3.39 0 3.13c0-.3.3-.62.9-.96.64-.34 2.4-.72 5.27-1.15a56.7 56.7 0 0 1 9.14-.7c5.06 0 8.85 1.36 11.38 4.09a13.75 13.75 0 0 1 3.86 9.78c0 3.75-1.05 7-3.15 9.78a9.63 9.63 0 0 1-8.1 4.15 9.5 9.5 0 0 1-3.22-.57c-2.15-.77-3.22-2.37-3.22-4.8 0-.5.17-1.19.52-2.04.34-.9.83-1.34 1.48-1.34ZM38.72 11.95l-1.54-.06c-1.16 0-1.9.28-2.25.83-.09.13-.2.2-.32.2-.56 0-.84-.95-.84-2.82 0-1.92.28-3.13.84-3.64.6-.52 1.6-.77 3.02-.77 1.46 0 2.45.25 2.96.77.51.46.77 1.27.77 2.42s-.2 1.96-.58 2.43c-.38.43-1.07.64-2.06.64Zm-5.14 32.28.7-14.9c0-3.53-.4-5.94-1.21-7.22a2.8 2.8 0 0 0-.9-.95c-.26-.09-.4-.26-.4-.52 0-.76 1.1-1.5 3.29-2.23s3.77-1.09 4.76-1.09c1.03 0 1.56.26 1.6.77 0 .85-.12 3.28-.38 7.28-.21 3.97-.32 8.14-.32 12.53 0 4.39.26 7.12.77 8.18.13.22.2.43.2.64 0 .56-.82.83-2.45.83-1.63 0-3.3-.42-5.02-1.28-.43-.2-.64-.9-.64-2.04ZM66.63 38.8c0 2.43-.98 4.45-2.95 6.07a10.63 10.63 0 0 1-6.95 2.36c-3.94 0-6.84-1.17-8.68-3.51-1.85-2.39-2.77-5.6-2.77-9.65 0-4.3.97-8.12 2.9-11.44a10.2 10.2 0 0 1 4.05-4.03 12.48 12.48 0 0 1 6.17-1.47c3.56 0 6.07 1.2 7.53 3.58.6.98.9 2.13.9 3.45 0 2.05-.86 3.58-2.57 4.6-.7.39-1.33.58-1.93.58-.56 0-1.03-.02-1.42-.07a4.08 4.08 0 0 1-1.41-.9c-.6-.5-.9-1.2-.9-2.1.04-.47.4-.85 1.09-1.15.64-.39.96-1.07.96-2.05 0-1.66-1.03-2.49-3.08-2.49-.52 0-1.14.23-1.87.7-.68.43-1.26 1-1.73 1.73-.48.68-.93 1.79-1.36 3.32-.38 1.5-.57 2.94-.57 4.35 0 1.36.04 2.4.12 3.13.13.68.37 1.64.71 2.88a5.97 5.97 0 0 0 2.06 2.94 6.17 6.17 0 0 0 3.8 1.15 6.3 6.3 0 0 0 4.75-2.24c.56-.6 1.01-1.32 1.35-2.17.18-.34.39-.51.65-.51.38 0 .66.36.83 1.08.22.68.32 1.3.32 1.86ZM89.59 37.39c0 1.83-.37 3.43-1.1 4.8a7.98 7.98 0 0 1-2.38 3c-.9.64-1.97 1.15-3.21 1.53-1.63.51-3.11.77-4.44.77-2.79 0-5.1-.53-6.94-1.6-1.85-1.1-2.77-2.85-2.77-5.24 0-1.4.39-2.56 1.16-3.45a5.63 5.63 0 0 1 4.3-1.98c.52 0 .78.23.78.7a8.53 8.53 0 0 0-.58 3.32c0 .94.36 1.77 1.1 2.5a3.9 3.9 0 0 0 2.76 1.08c1.07 0 1.93-.17 2.57-.5.64-.4 1.1-.86 1.35-1.41.39-.77.58-1.5.58-2.18 0-1.23-.62-2.3-1.86-3.2-1.25-.89-2.62-1.6-4.12-2.1a11.08 11.08 0 0 1-4.12-2.56 5.94 5.94 0 0 1-1.86-4.47c0-3.07.96-5.37 2.9-6.9 1.96-1.54 4.62-2.3 7.97-2.3 1.45 0 2.98.2 4.56.63 1.63.39 2.45 1.07 2.45 2.05 0 .93-.17 1.8-.52 2.62-.3.8-.68 1.21-1.15 1.21-.26 0-.43-.08-.52-.25a2.71 2.71 0 0 0-.45-.7 5.03 5.03 0 0 0-1.54-.97 4.74 4.74 0 0 0-3.28-.57c-.17 0-.5.06-.97.2-.47.08-.9.23-1.28.44a2.64 2.64 0 0 0-1.48 2.43c0 .68.15 1.2.45 1.53l.7.7c.18.18.48.39.9.64l.9.45 1.16.58 1.16.5c4.55 2.14 6.82 5.04 6.82 8.7ZM95.55 28.25l22-.2c.56 0 .84.24.84.71 0 2.13-.78 3.2-2.32 3.2H93.88c-.56 0-.84-.43-.84-1.28 0-1.62.84-2.43 2.51-2.43ZM121.9 21.22l.18-2.56c.05-.38.35-.57.9-.57h2.26l-.26-5.12v-.25c0-.98.75-1.92 2.25-2.81a8.19 8.19 0 0 1 4.12-1.35c.38 0 .58.18.58.52v.06c-.18 1.15-.35 4.11-.52 8.88 1.89 0 3.09-.04 3.6-.12l.84-.13c.3 0 .45.25.45.77 0 .5-.24 1.17-.7 1.98-.48.76-1 1.17-1.55 1.21h-2.7a459.59 459.59 0 0 0 0 15.79c.08 2.21.17 3.9.25 5.05.09 1.1.18 2 .26 2.68l.26 1.47c.08.3.13.5.13.58 0 .42-.28.66-.84.7-1.67 0-3.34-.23-5.02-.7-1.63-.47-2.44-1.28-2.44-2.43.9-7.16 1.35-14.85 1.35-23.08-1.16 0-2.04.05-2.64.13h-.06c-.39 0-.62-.23-.7-.7ZM143.54 22.05c-1.11.04-1.93.09-2.44.13-.47 0-.7-.13-.7-.39 0-.25.12-.5.38-.76 2.74-2.52 7.37-3.77 13.89-3.77 2.23 0 3.99.19 5.27.57l.65.2c.51.2.77.44.77.7 0 .21-.15.38-.45.5-1.16.35-2.28.9-3.35 1.67-1.07.72-1.6 1.24-1.6 1.53l.38.45a7.4 7.4 0 0 1 3.15 3.64c.77 1.67 1.2 3.14 1.29 4.41l.13 1.99c0 4.21-1.18 7.69-3.54 10.41-2.36 2.73-5.57 4.1-9.65 4.1-2.06 0-3.83-.37-5.34-1.1a9.64 9.64 0 0 1-3.34-2.42 12.9 12.9 0 0 1-1.67-3.13c-.52-1.58-.77-3.2-.77-4.86 0-1.7.28-3.4.83-5.11.6-1.7 1.27-2.96 2-3.77.77-.81 1.63-1.47 2.57-1.99a6.68 6.68 0 0 1 2.9-.95c.72 0 1.09.14 1.09.44l-.39.64a10.27 10.27 0 0 0-2.06 4.35 23 23 0 0 0-.58 4.8c0 1.36.17 2.72.52 4.08a11 11 0 0 0 1.16 3.07 4.85 4.85 0 0 0 4.05 2.24c.9 0 1.78-.34 2.63-1.02a6.16 6.16 0 0 0 1.87-2.82 19.18 19.18 0 0 0 1.16-6.58c0-3.58-.92-6.35-2.77-8.3-1.8-1.97-4.48-2.95-8.04-2.95ZM167.66 28.25l22-.2c.55 0 .83.24.83.71 0 2.13-.78 3.2-2.32 3.2h-22.19c-.55 0-.83-.43-.83-1.28 0-1.62.83-2.43 2.5-2.43ZM216.9 23.46c.42-1.07.76-2.16 1.02-3.26.3-1.15.45-2.2.45-3.13 0-.98-.34-2.77-1.03-5.37-1.2-4.35-2.23-6.93-3.09-7.74l-.38-.44c-.43-.26-.65-.56-.65-.9 0-.72.97-1.34 2.9-1.85s3.5-.77 4.7-.77c1.24 0 1.97.36 2.18 1.09a64.6 64.6 0 0 1 1.67 6.84 462.2 462.2 0 0 1 1.61 7.73l1.1 4.92c.25 1.15.6 2.64 1.02 4.47.82 3.41 1.63 6.2 2.45 8.38.25.6.56.9.9.9.38 0 .77-.37 1.16-1.1.42-.76.98-1.83 1.67-3.19.73-1.4 1.67-3.88 2.83-7.41 1.2-3.54 1.8-6.6 1.8-9.2 0-4.01-1.33-6.85-3.99-8.5a1.27 1.27 0 0 1-.32-.84c0-.3.15-.6.45-.9l1.28-.83c.56-.38 1.68-.85 3.35-1.4 1.67-.6 3.17-.9 4.5-.9s2.12.2 2.38.58c.26.34.39.98.39 1.92 0 4.13-1.25 9.63-3.73 16.49a137.38 137.38 0 0 1-7.85 18.08c-2.74 5.2-4.8 8.46-6.17 9.78a4.7 4.7 0 0 1-1.29.96c-.39 0-.75-.3-1.1-.9-1.45-2.42-3.04-7.17-4.75-14.25-.77-3.32-1.22-5.2-1.35-5.62-.13-.43-.24-.64-.32-.64-.22 0-.41.21-.58.64-1.5 3.45-3.18 6.84-5.02 10.16a89.56 89.56 0 0 1-4.44 7.29l-1.6 2.36c-.43.6-.86.9-1.3.9-.42 0-.8-.28-1.15-.83-1.16-2.18-2.57-6.37-4.24-12.6l-.84-3.19c-.17-.6-.56-2.22-1.16-4.86-2.27-10.1-4-16.4-5.2-18.92-.7-1.4-1.3-2.32-1.8-2.74a3.33 3.33 0 0 0-1.17-.77c-.47-.21-.7-.47-.7-.77 0-.34.17-.66.51-.96.52-.38 1.65-.83 3.41-1.34 1.76-.55 3.24-.83 4.44-.83 1.2 0 1.9.36 2.12 1.09.86 1.57 1.87 5.11 3.02 10.6 2.45 11.51 4.25 18.75 5.4 21.74.22.6.52.9.9.9.4 0 .73-.33 1.03-.97.39-.38 1.14-1.85 2.26-4.4a98.2 98.2 0 0 0 2.31-5.5ZM251.63 22.05c-1.11.04-1.93.09-2.44.13-.47 0-.7-.13-.7-.39 0-.25.12-.5.38-.76 2.74-2.52 7.37-3.77 13.89-3.77 2.23 0 3.99.19 5.27.57l.65.2c.51.2.77.44.77.7 0 .21-.15.38-.45.5-1.16.35-2.27.9-3.35 1.67-1.07.72-1.6 1.24-1.6 1.53l.38.45a7.4 7.4 0 0 1 3.15 3.64c.78 1.67 1.2 3.14 1.29 4.41l.13 1.99c0 4.21-1.18 7.69-3.54 10.41-2.36 2.73-5.57 4.1-9.65 4.1-2.05 0-3.83-.37-5.33-1.1a9.65 9.65 0 0 1-3.35-2.42 12.87 12.87 0 0 1-1.67-3.13c-.52-1.58-.77-3.2-.77-4.86 0-1.7.28-3.4.83-5.11.6-1.7 1.27-2.96 2-3.77.77-.81 1.63-1.47 2.57-1.99a6.68 6.68 0 0 1 2.9-.95c.72 0 1.09.14 1.09.44l-.39.64a10.3 10.3 0 0 0-2.06 4.35 23 23 0 0 0-.57 4.8c0 1.36.17 2.72.5 4.08a11 11 0 0 0 1.17 3.07 4.85 4.85 0 0 0 4.05 2.24c.9 0 1.78-.34 2.64-1.02a6.16 6.16 0 0 0 1.86-2.82 19.18 19.18 0 0 0 1.16-6.58c0-3.58-.92-6.35-2.77-8.3-1.8-1.97-4.48-2.95-8.04-2.95ZM291.33 29.02l.25 2.23c0 .81-.77 1.22-2.31 1.22-3.13 0-4.7-1.17-4.7-3.52 0-.55.15-1.32.45-2.3.3-.98.45-1.83.45-2.55 0-.73-.21-1.35-.64-1.86a2.22 2.22 0 0 0-1.87-.83c-.81 0-1.52.3-2.12.9a3.5 3.5 0 0 0-1.03 1.72l-.25.9a39.45 39.45 0 0 0-.39 6.64c0 3.07.04 5.5.13 7.29a57.26 57.26 0 0 0 .38 4.8c0 1.06-.66 1.91-1.99 2.55a8.67 8.67 0 0 1-3.99 1.02c-1.32 0-1.99-.27-1.99-.83l.32-1.98c.6-3.7.9-8.54.9-14.5 0-5.97-.21-10.02-.64-12.15 0-.51.45-.77 1.35-.77 2.31 0 3.86.79 4.63 2.37.04.17.1.25.2.25.12 0 .42-.19.9-.57a7.7 7.7 0 0 1 5.01-1.73c1.2 0 2.4.24 3.6.7 2.45.98 3.67 3.03 3.67 6.14l-.32 4.86ZM306.8 17.45c.78 0 1.46.1 2.06.32.65.17 1 .25 1.03.25l.39-.32-.26-6.96a8.07 8.07 0 0 0-.77-3.07 4.9 4.9 0 0 0-1.16-1.66l-.58-.32c-.25-.17-.38-.36-.38-.58 0-.64.98-1.38 2.96-2.23 2.01-.86 3.58-1.28 4.7-1.28 1.1 0 1.7.23 1.8.7.2 1.45.31 4.22.31 8.31 0 4.05-.1 8.03-.32 11.95-.17 3.92-.25 8.37-.25 13.36 0 4.94.32 8.05.96 9.33.17.3.26.58.26.83 0 .64-.93.96-2.77.96-3.51 0-5.27-.83-5.27-2.5-.09-.67-.13-1.72-.13-3.12 0-1.45.13-4.12.38-8 .3-3.91.45-6.92.45-9 0-2.14-1.07-3.2-3.21-3.2-2.1 0-3.7 1.24-4.82 3.7a17.9 17.9 0 0 0-1.68 7.42c0 5.24 1.33 7.86 4 7.86.38 0 .74-.06 1.08-.19.4-.17.63-.25.71-.25.34 0 .6.2.77.63.22.43.32.86.32 1.28 0 1.45-.57 2.69-1.73 3.7a6.35 6.35 0 0 1-4.25 1.48 6.42 6.42 0 0 1-5.85-3.32c-1.29-2.26-1.93-5.05-1.93-8.38 0-4.22 1.01-8.14 3.02-11.76a11.8 11.8 0 0 1 4.19-4.28 10.98 10.98 0 0 1 5.98-1.66ZM340 37.39c0 1.83-.36 3.43-1.1 4.8a7.99 7.99 0 0 1-2.37 3c-.9.64-1.97 1.15-3.22 1.53-1.63.51-3.1.77-4.44.77-2.78 0-5.1-.53-6.94-1.6-1.85-1.1-2.77-2.85-2.77-5.24 0-1.4.39-2.56 1.16-3.45a5.63 5.63 0 0 1 4.3-1.98c.52 0 .78.23.78.7a8.55 8.55 0 0 0-.58 3.32c0 .94.37 1.77 1.1 2.5a3.9 3.9 0 0 0 2.76 1.08 5.5 5.5 0 0 0 2.57-.5c.65-.4 1.1-.86 1.35-1.41.39-.77.58-1.5.58-2.18 0-1.23-.62-2.3-1.86-3.2-1.25-.89-2.62-1.6-4.12-2.1a11.09 11.09 0 0 1-4.12-2.56 5.95 5.95 0 0 1-1.86-4.47c0-3.07.96-5.37 2.9-6.9 1.97-1.54 4.63-2.3 7.97-2.3 1.46 0 2.98.2 4.57.63 1.63.39 2.44 1.07 2.44 2.05 0 .93-.17 1.8-.52 2.62-.3.8-.68 1.21-1.15 1.21-.26 0-.43-.08-.52-.25a2.73 2.73 0 0 0-.45-.7 5.04 5.04 0 0 0-1.54-.97 4.74 4.74 0 0 0-3.28-.57c-.17 0-.5.06-.97.2-.47.08-.9.23-1.28.44a2.64 2.64 0 0 0-1.48 2.43c0 .68.15 1.2.45 1.53l.7.7c.18.18.48.39.9.64a788.88 788.88 0 0 1 2.06 1.03c.6.25 1 .42 1.16.5 4.55 2.14 6.82 5.04 6.82 8.7Z" fill="#2E63B3"/></svg>