
<svg width="640" height="640" fill="none" xmlns="http://www.w3.org/2000/svg"><path fill="#FFFBEF" d="M-121 0h882v720h-882z"/><path d="m-121 153 10.97 7.94a20 20 0 0 0 28.2-4.87l7.2-10.48a20 20 0 0 1 23.27-7.48l13.05 4.7 20.73 7.48a20 20 0 0 0 13.65-.03l10.77-3.93a20 20 0 0 1 18.58 2.58l7.2 5.2a20 20 0 0 0 23.49-.03l13.56-9.86a20 20 0 0 1 4.9-2.62l14.95-5.46a20 20 0 0 1 18.59 2.58l7.2 5.21a20 20 0 0 0 23.49-.03l4.1-2.98a20 20 0 0 1 23.48-.04l10.54 7.62a20 20 0 0 0 11.77 3.8l14.56-.04a20 20 0 0 1 11.77 3.8l10.53 7.62a20 20 0 0 0 23.5-.03l7.25-5.28a20 20 0 0 1 18.55-2.65l7.61 2.75a20 20 0 0 0 18.55-2.65l7.22-5.25a20 20 0 0 1 23.54 0l7.22 5.25a20 20 0 0 0 18.55 2.65l10.76-3.88a20 20 0 0 1 13.64.02l10.77 3.93a20 20 0 0 0 18.58-2.58l4.53-3.27a20 20 0 0 1 26.47 2.69l3.49 3.8a20 20 0 0 0 26.46 2.7l4.53-3.28a20 20 0 0 1 18.58-2.58l14.29 5.21a20 20 0 0 0 6.81 1.22l17.55.04a20 20 0 0 0 11.77-3.8l13.69-9.9a20 20 0 0 1 18.58-2.58l7.6 2.77a20 20 0 0 0 18.59-2.58l7.2-5.2a20 20 0 0 1 23.5.03l13.55 9.87c1.5 1.1 3.16 1.97 4.9 2.61l14.96 5.46a20 20 0 0 0 18.58-2.58l13.69-9.9a20 20 0 0 1 11.76-3.8l17.55.04a20 20 0 0 1 6.82 1.21L761 153v567h-882V153Z" fill="url(#a)"/><path d="m-121 317.63 25.68-9.38a69.58 69.58 0 0 1 57 4.19 69.58 69.58 0 0 0 57.02 4.18l1.09-.4a72.14 72.14 0 0 1 49.2-.1l17.27 6.23c8.76 3.16 18 4.76 27.31 4.74l33.86-.07c4.79-.01 9.56-.45 14.27-1.32l26.8-4.92a80 80 0 0 1 41.58 3.43l14.46 5.21a80 80 0 0 0 41.6 3.43l19.4-3.57a80.04 80.04 0 0 1 28.91 0l19.42 3.57a80 80 0 0 0 41.58-3.43l7.5-2.7a80 80 0 0 1 54.56.1l7.58 2.77a79.99 79.99 0 0 0 41.54 3.6l27.2-4.87c4.44-.8 8.8-1.96 13.04-3.49l28.42-10.25a80 80 0 0 1 41.6-3.43l9.6 1.77a69.9 69.9 0 0 0 45.94-7.3 69.9 69.9 0 0 1 66.83.12L761 317.62V700h-882V317.62Z" fill="url(#b)"/><path d="m-121 506.11 61.09-11.22a160 160 0 0 1 94.72 11.53l19.13 8.63a160 160 0 0 0 94.72 11.53l25.47-4.68a160 160 0 0 1 70.59 2.9l40.68 10.97a160 160 0 0 0 69.88 3.02l61.63-11.04c8.88-1.59 17.6-3.92 26.08-6.98l49.8-17.96a160 160 0 0 1 96.62-3.78l33.58 9.21a160 160 0 0 0 56.44 5.08l81.57-7.21V720h-882V506.11Z" fill="url(#c)"/><defs><radialGradient id="a" cx="0" cy="0" r="1" gradientUnits="userSpaceOnUse" gradientTransform="matrix(0 326.5 -1177.2 0 320 122)"><stop stop-color="#EFEADC"/><stop offset="1" stop-color="#FFFBEF"/></radialGradient><radialGradient id="b" cx="0" cy="0" r="1" gradientUnits="userSpaceOnUse" gradientTransform="matrix(0 319 -1152.52 0 320 288)"><stop offset="0" stop-color="#DFE4D6"/><stop offset="1" stop-color="#FFFBEF"/></radialGradient><radialGradient id="c" cx="0" cy="0" r="1" gradientUnits="userSpaceOnUse" gradientTransform="matrix(0 234 -880.513 0 320 486)"><stop stop-color="#CBD8CC"/><stop offset="1" stop-color="#FFFBEF"/></radialGradient></defs></svg>